<svg xmlns="http://www.w3.org/2000/svg" width="50" height="50" viewBox="0 0 50 50"><defs><style>.a{fill:#0067b8;}.b{fill:#fff;}</style></defs><g transform="translate(-674.928 -218.928)"><circle class="a" cx="25" cy="25" r="25" transform="translate(674.928 218.928)"/><g transform="translate(687.479 233.813)"><path class="b" d="M20.463,18.7a3.447,3.447,0,1,1-3.447-3.447A3.447,3.447,0,0,1,20.463,18.7Z" transform="translate(-4.762 -6.888)"/><path class="b" d="M24.571,6.251H19.756L18.006,4.5H11L9.253,6.251H4.438A2.188,2.188,0,0,0,2.25,8.439v14.88a2.188,2.188,0,0,0,2.188,2.188H24.571a2.188,2.188,0,0,0,2.188-2.188V8.439A2.188,2.188,0,0,0,24.571,6.251ZM14.5,22.444a6.127,6.127,0,1,1,6.127-6.127A6.127,6.127,0,0,1,14.5,22.444Z" transform="translate(-2.25 -4.5)"/></g></g></svg>